<svg viewBox="0 0 640 200" data-background-color="#020817" preserveAspectRatio="xMidYMid meet" height="200" width="640" xmlns="http://www.w3.org/2000/svg" xmlns:xlink="http://www.w3.org/1999/xlink"><rect width="640" height="200" x="0" y="0" opacity="1" fill="#020817" data-fill-palette-color="background" id="background"></rect><g id="tight-bounds" transform="matrix(1,0,0,1,122.24000000000001,76.4)"><svg viewBox="0 0 395.52 247.2" height="247.2" width="395.52"><rect width="395.52001953125" height="247.1999969482422" fill="url(#616dc06e-c1fc-4b3b-a810-20213e1d155c)" mask="url(#a671b84d-c7e5-487a-8537-0fd67efba71b)" data-fill-palette-color="tertiary"></rect><g><svg></svg></g><g><svg viewBox="0 0 395.52 247.2" height="247.2" width="395.52"><g transform="matrix(1,0,0,1,88.8926759078615,47.215199999999996)"><svg viewBox="0 0 217.73464818427698 152.7696" height="152.7696" width="217.73464818427698"><g><svg viewBox="0 0 244.43136 171.50086771239248" height="152.7696" width="217.73464818427698"><g><svg viewBox="0 0 244.43136 70.85279069603524" height="70.85279069603524" width="244.43136"><g id="textblocktransform"><svg viewBox="0 0 244.43136 70.85279069603524" height="70.85279069603524" width="244.43136" id="textblock"><g><svg viewBox="0 0 244.43136 70.85279069603524" height="70.85279069603524" width="244.43136"><g transform="matrix(1,0,0,1,0,0)"><svg width="244.43136" viewBox="4 -32.849998474121094 170.22999572753906 49.349998474121094" height="70.85279069603524" data-palette-color="#5590cf"><path d="M5.05 0.4L5.05 0.4Q4.65 0.4 4.33 0.15 4-0.1 4-0.6L4-0.6Q4-3.9 4.38-7.58 4.75-11.25 5.2-15L5.2-15 4.7-15Q4.2-15 4.2-15.35L4.2-15.35Q4.2-15.7 4.55-16.1 4.9-16.5 5.35-16.55L5.35-16.55Q5.7-19.25 6.15-22 6.6-24.75 7.15-27.45L7.15-27.45Q7.35-28.45 7.6-29.7 7.85-30.95 8.58-31.9 9.3-32.85 10.8-32.85L10.8-32.85Q11.55-32.85 11.55-32.35L11.55-32.35 11.55-32.25Q10.15-29.1 9.13-25.05 8.1-21 7.35-16.55L7.35-16.55Q8.65-16.55 10.83-16.55 13-16.55 15.6-16.57 18.2-16.6 20.75-16.63 23.3-16.65 25.3-16.65L25.3-16.65Q25.6-19.3 25.95-21.85 26.3-24.4 26.75-26.95L26.75-26.95 26.75-28.45Q26.75-30.1 27.6-31.48 28.45-32.85 30.5-32.85L30.5-32.85Q31.25-32.85 31.25-32.35L31.25-32.35 31.25-32.25Q29.95-29.25 28.95-25.23 27.95-21.2 27.3-16.65L27.3-16.65Q27.65-16.65 27.95-16.68 28.25-16.7 28.45-16.7L28.45-16.7Q28.75-16.7 28.75-16.4L28.75-16.4Q28.75-16.1 28.35-15.68 27.95-15.25 27.1-15.05L27.1-15.05Q26.6-10.9 26.35-7.4 26.1-3.9 26.1-2.35L26.1-2.35Q26.2-1.7 26.33-1.53 26.45-1.35 26.45-1.05L26.45-1.05Q26.45-0.35 25.95 0.03 25.45 0.4 24.9 0.4L24.9 0.4Q23.7 0.4 23.7-0.7L23.7-0.7Q24.05-4.4 24.4-7.95 24.75-11.5 25.1-15L25.1-15 7.15-15Q6.6-11.25 6.33-7.98 6.05-4.7 6.05-2.8L6.05-2.8Q6.05-2.05 6.23-1.73 6.4-1.4 6.4-1L6.4-1Q6.4-0.3 5.95 0.05 5.5 0.4 5.05 0.4ZM26.55 16.5L26.55 16.5Q25.75 16.5 25.75 15.55L25.75 15.55Q25.75 14.3 26.62 12.45 27.5 10.6 28.8 8.55 30.1 6.5 31.4 4.63 32.7 2.75 33.62 1.45 34.55 0.15 34.65-0.1L34.65-0.1Q34.95-1 35.07-2.15 35.2-3.3 35.2-4.6L35.2-4.6Q35.2-7.1 34.87-9.45 34.55-11.8 33.92-13.35 33.3-14.9 32.3-14.9L32.3-14.9Q32.1-14.9 31.9-14.88 31.7-14.85 31.6-14.85L31.6-14.85Q31.4-14.85 31.4-15.1L31.4-15.1Q31.4-15.25 31.62-15.55 31.85-15.85 32.5-16.3L32.5-16.3Q32.75-16.5 33.07-17 33.4-17.5 33.75-17.95 34.1-18.4 34.4-18.4L34.4-18.4Q35.15-18.4 35.75-16.88 36.35-15.35 36.72-12.98 37.1-10.6 37.1-8L37.1-8Q37.1-7.4 37.07-6.8 37.05-6.2 37.05-5.6L37.05-5.6Q37.05-4.8 37.45-4.8L37.45-4.8Q37.95-4.8 38.9-5.85 39.85-6.9 40.97-8.5 42.1-10.1 43.15-11.83 44.2-13.55 44.87-14.93 45.55-16.3 45.55-16.85L45.55-16.85Q45.55-17.15 45.3-17.15L45.3-17.15Q45.15-17.15 44.95-17.05 44.75-16.95 44.55-16.95L44.55-16.95Q44.3-16.95 44.15-17.2L44.15-17.2Q44.15-17.65 44.87-18.18 45.6-18.7 46.5-19.07 47.4-19.45 47.95-19.45L47.95-19.45Q48.2-19.45 48.3-19.4L48.3-19.4Q48.45-19.2 48.45-18.85L48.45-18.85Q48.45-18.1 47.72-16.65 47-15.2 45.85-13.43 44.7-11.65 43.35-9.78 42-7.9 40.7-6.23 39.4-4.55 38.42-3.33 37.45-2.1 37.05-1.65L37.05-1.65Q37.05-2 36.92-1.48 36.8-0.95 36.62-0.08 36.45 0.8 36.17 1.53 35.9 2.25 35.6 2.25L35.6 2.25Q35.35 2.25 35.07 2.13 34.8 2 34.7 2L34.7 2Q31 7 29.47 9.7 27.95 12.4 27.95 13.6L27.95 13.6Q27.95 14.2 28.15 14.53 28.35 14.85 28.35 15.15L28.35 15.15Q28.35 15.7 27.72 16.1 27.1 16.5 26.55 16.5ZM43.15 13.8L43.15 13.8Q42.55 13.8 42.55 12.55L42.55 12.55Q42.55 11.85 42.92 10.48 43.3 9.1 43.9 7.35 44.5 5.6 45.17 3.78 45.85 1.95 46.45 0.35 47.05-1.25 47.4-2.25L47.4-2.25Q47.25-2.65 47.25-3.1L47.25-3.1Q47.25-3.6 47.5-4.1 47.75-4.6 48.35-4.95L48.35-4.95Q48.8-6.4 49.42-8.3 50.05-10.2 50.65-12.08 51.25-13.95 51.67-15.38 52.1-16.8 52.25-17.3L52.25-17.3Q52.25-17.4 51.7-17.43 51.15-17.45 51.15-17.75L51.15-17.75Q51.15-18.1 51.55-18.3 51.95-18.5 52.32-18.63 52.7-18.75 52.7-18.8L52.7-18.8Q52.5-19 52.5-19.2L52.5-19.2Q52.5-19.7 52.97-20.23 53.45-20.75 54.05-21.15 54.65-21.55 55.05-21.55L55.05-21.55Q55.45-21.55 55.45-21.05L55.45-21.05Q55.45-20.9 55.4-20.65 55.35-20.4 55.2-20.1L55.2-20.1 54.65-18.9Q56.7-17.5 57.77-15.33 58.85-13.15 59.35-10.75L59.35-10.75Q60-10.95 60.7-11.2 61.4-11.45 62.05-11.6L62.05-11.6Q62.2-11.65 62.35-11.65 62.5-11.65 62.6-11.65L62.6-11.65Q62.95-11.65 62.95-11.5L62.95-11.5Q62.95-11.1 62.37-10.83 61.8-10.55 61.02-10.35 60.25-10.15 59.55-9.85L59.55-9.85Q59.7-9.05 59.75-8.35 59.8-7.65 59.8-7L59.8-7Q59.8-4.2 58.77-2.55 57.75-0.9 56.22-0.23 54.7 0.45 53.15 0.45L53.15 0.45Q52 0.45 50.75 0.13 49.5-0.2 48.65-0.85L48.65-0.85Q47.7 1.9 46.77 4.53 45.85 7.15 45.15 9.3L45.15 9.3Q45.1 9.4 45.1 9.5L45.1 9.5Q45.1 9.75 45.27 9.95 45.45 10.15 45.45 10.55L45.45 10.55Q45.45 10.8 45.12 11.6 44.8 12.4 44.27 13.1 43.75 13.8 43.15 13.8ZM50.9-6.85L50.9-6.85Q52.05-7.65 53.57-8.4 55.1-9.15 57.15-9.95L57.15-9.95Q56.6-12.85 55.65-14.65 54.7-16.45 54.2-16.45L54.2-16.45Q54.05-16.45 53.72-15.53 53.4-14.6 52.92-13.13 52.45-11.65 51.92-10 51.4-8.35 50.9-6.85ZM52.65-0.8L52.65-0.8Q54.5-0.8 55.6-1.65 56.7-2.5 57.17-3.83 57.65-5.15 57.65-6.55L57.65-6.55Q57.65-7.2 57.57-7.85 57.5-8.5 57.4-9.15L57.4-9.15Q56.95-9.15 55.95-8.68 54.95-8.2 53.82-7.5 52.7-6.8 51.72-6.15 50.75-5.5 50.35-5.1L50.35-5.1 49.25-1.95Q50.25-1.3 51.07-1.05 51.9-0.8 52.65-0.8ZM65.54 0.5L65.54 0.5Q64.94 0.5 64.17 0.23 63.39-0.05 62.82-0.78 62.24-1.5 62.24-2.85L62.24-2.85Q62.24-3.4 62.39-4.15L62.39-4.15Q62.89-6.65 63.37-7.95 63.84-9.25 63.94-10.05L63.94-10.05Q63.79-10.1 63.49-10.3 63.19-10.5 63.19-10.85L63.19-10.85Q63.19-11.2 63.49-11.3 63.79-11.4 64.04-11.4L64.04-11.4 64.39-11.4Q64.79-12.25 65.27-13.25 65.74-14.25 66.69-15.95L66.69-15.95Q67.54-17.55 68.92-18.07 70.29-18.6 72.04-18.6L72.04-18.6Q73.74-18.6 74.39-15.55L74.39-15.55Q74.69-14 74.69-13.05L74.69-13.05Q74.69-11.85 73.92-11.15 73.14-10.45 72.02-10.1 70.89-9.75 69.79-9.63 68.69-9.5 68.04-9.5L68.04-9.5Q67.39-9.5 66.92-9.53 66.44-9.55 66.24-9.55L66.24-9.55Q65.49-7.65 65.04-5.9 64.59-4.15 64.59-2.95L64.59-2.95Q64.59-0.95 66.09-0.95L66.09-0.95Q66.99-0.95 67.97-1.75 68.94-2.55 69.84-3.6 70.74-4.65 71.39-5.45 72.04-6.25 72.24-6.25L72.24-6.25Q72.59-6.25 72.59-5.85L72.59-5.85Q72.59-5.15 71.79-4.08 70.99-3 69.82-1.95 68.64-0.9 67.47-0.2 66.29 0.5 65.54 0.5ZM68.69-10.85L68.69-10.85Q70.59-10.85 71.57-11.28 72.54-11.7 72.59-13.15L72.59-13.15Q72.59-15.2 72.07-16.05 71.54-16.9 71.09-16.9L71.09-16.9Q70.49-16.9 69.82-16.18 69.14-15.45 68.52-14.45 67.89-13.45 67.39-12.48 66.89-11.5 66.69-10.95L66.69-10.95Q66.94-10.95 67.49-10.9 68.04-10.85 68.69-10.85ZM74.64 0.3L74.64 0.3Q74.34 0.3 74.19 0.05L74.19 0.05Q74.19-1.25 74.52-2.38 74.84-3.5 75.34-3.7L75.34-3.7Q76.04-6.3 76.39-7.73 76.74-9.15 76.89-9.85 77.04-10.55 77.14-10.98 77.24-11.4 77.39-12L77.39-12Q77.49-12.25 77.49-12.45 77.49-12.65 77.49-12.8L77.49-12.8Q77.49-13.2 77.39-13.28 77.29-13.35 77.29-13.65L77.29-13.65Q77.29-13.75 77.32-13.88 77.34-14 77.39-14.2L77.39-14.2Q78.19-17.3 78.99-18.48 79.79-19.65 81.44-19.65L81.44-19.65Q82.04-19.65 82.14-19.25L82.14-19.25Q81.89-18.55 81.07-16.63 80.24-14.7 79.32-12.15 78.39-9.6 77.79-7L77.79-7Q78.19-7.75 79.07-9.22 79.94-10.7 81.12-12.45 82.29-14.2 83.64-15.78 84.99-17.35 86.27-18.38 87.54-19.4 88.59-19.4L88.59-19.4Q89.19-19.4 89.49-18.98 89.79-18.55 89.79-17.9L89.79-17.9Q89.79-17.25 89.49-16.4 89.19-15.55 88.64-14.75L88.64-14.75Q88.29-14.25 87.62-13.7 86.94-13.15 86.54-13.15L86.54-13.15Q86.24-13.15 86.24-13.45L86.24-13.45Q86.24-13.7 86.49-14.28 86.74-14.85 86.97-15.48 87.19-16.1 87.19-16.5L87.19-16.5Q87.19-16.85 86.94-16.85L86.94-16.85Q86.04-16.85 84.67-15.35 83.29-13.85 81.74-11.43 80.19-9 78.84-6.23 77.49-3.45 76.69-0.9L76.69-0.9Q76.39-0.5 75.74-0.1 75.09 0.3 74.64 0.3ZM91.29 0.4L91.29 0.4Q90.64 0.4 90.39 0 90.14-0.4 90.14-1.05L90.14-1.05Q90.14-2.05 90.59-3.43 91.04-4.8 91.34-5.75L91.34-5.75Q92.44-9.2 93.21-12.2 93.99-15.2 94.54-17.2L94.54-17.2Q94.34-17.15 93.19-17.07 92.04-17 91.19-17L91.19-17Q90.04-17 90.04-17.45L90.04-17.45Q90.04-17.85 90.71-18.3 91.39-18.75 91.74-18.75L91.74-18.75 94.94-18.75 95.14-19.45Q95.29-20.05 95.29-20.3L95.29-20.3Q95.29-20.6 95.19-20.7 95.09-20.8 95.09-21L95.09-21Q95.09-21.15 95.24-21.6L95.24-21.6Q95.89-23.7 96.44-24.85 96.99-26 97.69-26.45 98.39-26.9 99.49-26.9L99.49-26.9Q100.24-26.9 100.29-26.45L100.29-26.45Q99.99-25.8 99.14-23.73 98.29-21.65 97.24-18.75L97.24-18.75 102.09-18.75Q103.49-18.75 103.49-18.45L103.49-18.45Q103.49-18.15 102.76-17.95 102.04-17.75 100.94-17.63 99.84-17.5 98.71-17.45 97.59-17.4 96.79-17.4L96.79-17.4Q96.14-15.5 95.36-13.08 94.59-10.65 93.89-8.22 93.19-5.8 92.74-3.9L92.74-3.9Q92.49-2.9 92.49-2.45L92.49-2.45Q92.49-1.6 93.04-1.6L93.04-1.6Q93.69-1.6 94.46-2.13 95.24-2.65 95.96-3.38 96.69-4.1 97.26-4.63 97.84-5.15 98.04-5.15L98.04-5.15Q98.29-5.15 98.29-4.85L98.29-4.85Q98.29-4.55 98.14-4.2 97.99-3.85 97.74-3.75L97.74-3.75Q97.34-3.4 96.54-2.73 95.74-2.05 94.79-1.33 93.84-0.6 92.91-0.1 91.99 0.4 91.29 0.4ZM99.69 0.3L99.69 0.3Q99.39 0.3 99.24 0.05L99.24 0.05Q99.24-1.25 99.56-2.38 99.89-3.5 100.39-3.7L100.39-3.7Q101.09-6.3 101.44-7.73 101.79-9.15 101.94-9.85 102.09-10.55 102.19-10.98 102.29-11.4 102.44-12L102.44-12Q102.54-12.25 102.54-12.45 102.54-12.65 102.54-12.8L102.54-12.8Q102.54-13.2 102.44-13.28 102.34-13.35 102.34-13.65L102.34-13.65Q102.34-13.75 102.36-13.88 102.39-14 102.44-14.2L102.44-14.2Q103.24-17.3 104.04-18.48 104.84-19.65 106.49-19.65L106.49-19.65Q107.09-19.65 107.19-19.25L107.19-19.25Q106.94-18.55 106.11-16.63 105.29-14.7 104.36-12.15 103.44-9.6 102.84-7L102.84-7Q103.24-7.75 104.11-9.22 104.99-10.7 106.16-12.45 107.34-14.2 108.69-15.78 110.04-17.35 111.31-18.38 112.59-19.4 113.64-19.4L113.64-19.4Q114.24-19.4 114.54-18.98 114.84-18.55 114.84-17.9L114.84-17.9Q114.84-17.25 114.54-16.4 114.24-15.55 113.69-14.75L113.69-14.75Q113.34-14.25 112.66-13.7 111.99-13.15 111.59-13.15L111.59-13.15Q111.29-13.15 111.29-13.45L111.29-13.45Q111.29-13.7 111.54-14.28 111.79-14.85 112.01-15.48 112.24-16.1 112.24-16.5L112.24-16.5Q112.24-16.85 111.99-16.85L111.99-16.85Q111.09-16.85 109.71-15.35 108.34-13.85 106.79-11.43 105.24-9 103.89-6.23 102.54-3.45 101.74-0.9L101.74-0.9Q101.44-0.5 100.79-0.1 100.14 0.3 99.69 0.3ZM116.38 0.95L116.38 0.95Q115.13 0.95 114.31-0.08 113.48-1.1 113.48-3.25L113.48-3.25Q113.48-3.75 113.53-4.33 113.58-4.9 113.68-5.55L113.68-5.55Q113.83-6.4 114.31-8.03 114.78-9.65 115.53-11.55 116.28-13.45 117.26-15.18 118.23-16.9 119.41-18 120.58-19.1 121.93-19.1L121.93-19.1 122.28-19.1Q122.28-19.75 122.68-20.28 123.08-20.8 123.78-20.8L123.78-20.8Q124.33-20.75 124.58-19.88 124.83-19 125.01-17.88 125.18-16.75 125.53-15.88 125.88-15 126.63-14.9L126.63-14.9Q127.58-14.75 127.58-14.35L127.58-14.35Q127.58-13.95 126.63-13.45L126.63-13.45Q126.28-13.3 125.98-13.25 125.68-13.2 125.48-13.2L125.48-13.2Q125.48-10.05 124.58-7.45 123.68-4.85 122.26-2.98 120.83-1.1 119.28-0.08 117.73 0.95 116.38 0.95ZM117.13-0.55L117.13-0.55Q118.03-0.55 119.21-1.58 120.38-2.6 121.48-4.42 122.58-6.25 123.33-8.6 124.08-10.95 124.08-13.6L124.08-13.6Q123.68-13.85 123.31-14.65 122.93-15.45 122.63-16.18 122.33-16.9 122.08-16.9L122.08-16.9Q121.38-16.9 120.58-15.93 119.78-14.95 119.03-13.48 118.28-12 117.63-10.35 116.98-8.7 116.53-7.28 116.08-5.85 115.93-5.1L115.93-5.1Q115.83-4.45 115.78-3.93 115.73-3.4 115.73-3L115.73-3Q115.73-0.55 117.13-0.55ZM122.68 13.8L122.68 13.8Q122.08 13.8 122.08 12.55L122.08 12.55Q122.08 11.85 122.46 10.48 122.83 9.1 123.43 7.35 124.03 5.6 124.71 3.78 125.38 1.95 125.98 0.35 126.58-1.25 126.93-2.25L126.93-2.25Q126.78-2.65 126.78-3.1L126.78-3.1Q126.78-3.6 127.03-4.1 127.28-4.6 127.88-4.95L127.88-4.95Q128.33-6.4 128.96-8.3 129.58-10.2 130.18-12.08 130.78-13.95 131.21-15.38 131.63-16.8 131.78-17.3L131.78-17.3Q131.78-17.4 131.23-17.43 130.68-17.45 130.68-17.75L130.68-17.75Q130.68-18.1 131.08-18.3 131.48-18.5 131.86-18.63 132.23-18.75 132.23-18.8L132.23-18.8Q132.03-19 132.03-19.2L132.03-19.2Q132.03-19.7 132.51-20.23 132.98-20.75 133.58-21.15 134.18-21.55 134.58-21.55L134.58-21.55Q134.98-21.55 134.98-21.05L134.98-21.05Q134.98-20.9 134.93-20.65 134.88-20.4 134.73-20.1L134.73-20.1 134.18-18.9Q136.23-17.5 137.31-15.33 138.38-13.15 138.88-10.75L138.88-10.75Q139.53-10.95 140.23-11.2 140.93-11.45 141.58-11.6L141.58-11.6Q141.73-11.65 141.88-11.65 142.03-11.65 142.13-11.65L142.13-11.65Q142.48-11.65 142.48-11.5L142.48-11.5Q142.48-11.1 141.91-10.83 141.33-10.55 140.56-10.35 139.78-10.15 139.08-9.85L139.08-9.85Q139.23-9.05 139.28-8.35 139.33-7.65 139.33-7L139.33-7Q139.33-4.2 138.31-2.55 137.28-0.9 135.76-0.23 134.23 0.45 132.68 0.45L132.68 0.45Q131.53 0.45 130.28 0.13 129.03-0.2 128.18-0.85L128.18-0.85Q127.23 1.9 126.31 4.53 125.38 7.15 124.68 9.3L124.68 9.3Q124.63 9.4 124.63 9.5L124.63 9.5Q124.63 9.75 124.81 9.95 124.98 10.15 124.98 10.55L124.98 10.55Q124.98 10.8 124.66 11.6 124.33 12.4 123.81 13.1 123.28 13.8 122.68 13.8ZM130.43-6.85L130.43-6.85Q131.58-7.65 133.11-8.4 134.63-9.15 136.68-9.95L136.68-9.95Q136.13-12.85 135.18-14.65 134.23-16.45 133.73-16.45L133.73-16.45Q133.58-16.45 133.26-15.53 132.93-14.6 132.46-13.13 131.98-11.65 131.46-10 130.93-8.35 130.43-6.85ZM132.18-0.8L132.18-0.8Q134.03-0.8 135.13-1.65 136.23-2.5 136.71-3.83 137.18-5.15 137.18-6.55L137.18-6.55Q137.18-7.2 137.11-7.85 137.03-8.5 136.93-9.15L136.93-9.15Q136.48-9.15 135.48-8.68 134.48-8.2 133.36-7.5 132.23-6.8 131.26-6.15 130.28-5.5 129.88-5.1L129.88-5.1 128.78-1.95Q129.78-1.3 130.61-1.05 131.43-0.8 132.18-0.8ZM149.33 2.3L149.33 2.3Q148.78 2.3 148.43 1.9 148.08 1.5 148.08 0.45L148.08 0.45Q148.08-1 148.65-3.03 149.23-5.05 150.05-7.23 150.88-9.4 151.7-11.35 152.53-13.3 153.1-14.68 153.68-16.05 153.68-16.4L153.68-16.4Q153.68-16.5 153.63-16.5L153.63-16.5Q153.43-16.5 152.73-15.75L152.73-15.75Q149.88-12.55 148.15-10 146.43-7.45 145.45-5.5 144.48-3.55 143.9-2.27 143.33-1 142.75-0.35 142.18 0.3 141.23 0.3L141.23 0.3Q140.78 0.3 140.78-0.2L140.78-0.2Q140.78-0.65 141.03-1.2L141.03-1.2Q143.33-7.1 144.98-12.63 146.63-18.15 148.63-24.15L148.63-24.15Q148.73-24.5 148.75-24.7 148.78-24.9 148.78-25.05L148.78-25.05Q148.78-25.3 148.73-25.4 148.68-25.5 148.68-25.7L148.68-25.7Q148.68-25.9 148.83-26.35L148.83-26.35Q149.58-28.4 150.13-29.55 150.68-30.7 151.38-31.15 152.08-31.6 153.23-31.6L153.23-31.6Q153.93-31.6 153.98-31.15L153.98-31.15Q151.23-25.55 148.93-19.38 146.63-13.2 145.13-7.75L145.13-7.75Q145.68-8.6 146.63-10.05 147.58-11.5 148.8-13.1 150.03-14.7 151.35-16.15 152.68-17.6 153.98-18.5 155.28-19.4 156.38-19.4L156.38-19.4Q157.43-19.4 157.43-18.7L157.43-18.7Q157.43-18.25 157.08-17.7L157.08-17.7Q155.98-15.9 154.7-13.5 153.43-11.1 152.3-8.55 151.18-6 150.45-3.7 149.73-1.4 149.73 0.25L149.73 0.25Q149.73 0.95 150.13 0.95L150.13 0.95Q150.38 0.95 151.03 0.5 151.68 0.05 151.88 0.05L151.88 0.05Q152.13 0.05 152.13 0.35L152.13 0.35Q152.13 0.95 151.2 1.63 150.28 2.3 149.33 2.3ZM152.33 16.5L152.33 16.5Q151.53 16.5 151.53 15.55L151.53 15.55Q151.53 14.3 152.4 12.45 153.28 10.6 154.58 8.55 155.88 6.5 157.18 4.63 158.48 2.75 159.4 1.45 160.33 0.15 160.43-0.1L160.43-0.1Q160.73-1 160.85-2.15 160.98-3.3 160.98-4.6L160.98-4.6Q160.98-7.1 160.65-9.45 160.33-11.8 159.7-13.35 159.08-14.9 158.08-14.9L158.08-14.9Q157.88-14.9 157.68-14.88 157.48-14.85 157.38-14.85L157.38-14.85Q157.18-14.85 157.18-15.1L157.18-15.1Q157.18-15.25 157.4-15.55 157.63-15.85 158.28-16.3L158.28-16.3Q158.53-16.5 158.85-17 159.18-17.5 159.53-17.95 159.88-18.4 160.18-18.4L160.18-18.4Q160.93-18.4 161.53-16.88 162.13-15.35 162.5-12.98 162.88-10.6 162.88-8L162.88-8Q162.88-7.4 162.85-6.8 162.83-6.2 162.83-5.6L162.83-5.6Q162.83-4.8 163.23-4.8L163.23-4.8Q163.73-4.8 164.68-5.85 165.63-6.9 166.75-8.5 167.88-10.1 168.93-11.83 169.98-13.55 170.65-14.93 171.33-16.3 171.33-16.85L171.33-16.85Q171.33-17.15 171.08-17.15L171.08-17.15Q170.93-17.15 170.73-17.05 170.53-16.95 170.33-16.95L170.33-16.95Q170.08-16.95 169.93-17.2L169.93-17.2Q169.93-17.65 170.65-18.18 171.38-18.7 172.28-19.07 173.18-19.45 173.73-19.45L173.73-19.45Q173.98-19.45 174.08-19.4L174.08-19.4Q174.23-19.2 174.23-18.85L174.23-18.85Q174.23-18.1 173.5-16.65 172.78-15.2 171.63-13.43 170.48-11.65 169.13-9.78 167.78-7.9 166.48-6.23 165.18-4.55 164.2-3.33 163.23-2.1 162.83-1.65L162.83-1.65Q162.83-2 162.7-1.48 162.58-0.95 162.4-0.08 162.23 0.8 161.95 1.53 161.68 2.25 161.38 2.25L161.38 2.25Q161.13 2.25 160.85 2.13 160.58 2 160.48 2L160.48 2Q156.78 7 155.25 9.7 153.73 12.4 153.73 13.6L153.73 13.6Q153.73 14.2 153.93 14.53 154.13 14.85 154.13 15.15L154.13 15.15Q154.13 15.7 153.5 16.1 152.88 16.5 152.33 16.5Z" opacity="1" transform="matrix(1,0,0,1,0,0)" fill="#5590cf" class="wordmark-text-0" data-fill-palette-color="primary" id="text-0"></path></svg></g></svg></g></svg></g></svg></g><g transform="matrix(1,0,0,1,46.68638976,87.57943411239246)"><svg viewBox="0 0 151.05858048000002 83.92143360000001" height="83.92143360000001" width="151.05858048000002"><g></g></svg></g><g></g></svg></g></svg></g><g></g></svg></g><defs></defs><mask id="a671b84d-c7e5-487a-8537-0fd67efba71b"></mask><linearGradient x1="0.054" x2="0.941" y1="0.5" y2="0.5" id="616dc06e-c1fc-4b3b-a810-20213e1d155c"><stop stop-color="#0f3054" offset="0"></stop><stop stop-color="#3b8dcb" offset="0.498"></stop><stop stop-color="#0f3054" offset="1"></stop></linearGradient></svg><rect width="395.52" height="247.2" fill="none" stroke="none" visibility="hidden"></rect></g></svg>